<svg xmlns="http://www.w3.org/2000/svg" viewBox="0 0 1000 1000">
  <defs>
    <style>
      .cls-1 { fill: #ffffff; }
      .cls-2 { fill: #ffffff; }
    </style>
  </defs>
  <path class="cls-1" d="M515.18,187.77c45.35,1.5,90.12,21.7,125.51,61.41,29,32.53,44.09,71.19,44.93,114.64s31.34,77,69.18,83.6c23.15,4,44.75.11,64-14,3.35-2.45,5.14-2.23,8.1.76q29.19,29.43,58.86,58.4c3.33,3.25,3.16,5-.42,7.93-38.66,31.65-82.64,46.46-132.59,41.31a172.23,172.23,0,0,1-87.92-34.92c-28.79-21.88-50.42-49.13-62.63-83.36-6.65-18.63-9.34-38-10.18-57.76-1.43-33.64-17.16-59-47-74.74-34.9-18.38-78.11-9.25-104.43,21.85-35.83,42.33-23.89,116.17,39.91,136.53C492,453.16,504,453.14,516,453.86q75.35,4.58,125.24,61.22c32.65,37,47.16,80.71,44.55,129.67-2.41,45.2-20.35,83.91-52.5,115.92-29.17,29.06-64.07,46.72-104.93,51.89a172.54,172.54,0,0,1-87.16-11.36,183.27,183.27,0,0,1-77.6-58.43,173.05,173.05,0,0,1-35.68-86.56c-1.37-11.08-.78-22.29-2.7-33.33-10.47-60.47-79.16-90-129.92-55.65-4.4,3-6.65,2.65-10.15-.89Q156,536.85,126.42,507.77c-2.58-2.54-2.4-4,.16-6.18C141.92,488.53,158.81,478,177.7,471,228.79,451.9,279,454.6,326.76,480.54c41.72,22.63,70.58,57,85.36,102.59,5.65,17.41,8.17,35.3,8.63,53.53,1.64,64.35,70.59,104.41,126.8,73.16,27.9-15.52,43.48-40,44.49-72.19,1.07-33.86-13.28-60.28-42.14-78.16A78.08,78.08,0,0,0,509.05,548c-40.88-.45-78.09-12.17-110.52-37.24-41.72-32.24-66.09-74.37-70.72-127.36-3.46-39.65,5.35-76.55,26.22-110.2C387,220,444.84,188.2,515.18,187.77Z"/>
  <path class="cls-1" d="M418.5,546.67c6.62,2.73,12.77,5.47,19.06,7.83,21.52,8.1,43.71,12.73,66.79,12.9,29.7.22,54.19,16.38,63.81,41.93,12.2,32.4-.35,66.92-30.45,83.74-39.55,22.11-91.39-4.2-96.72-49.13-1.63-13.7-1.19-27.58-3.92-41.22-3.78-18.84-9.06-37.13-18-54.21A11,11,0,0,1,418.5,546.67Z"/>
  <path class="cls-1" d="M594.38,454.42c-10-4.55-19-8.56-28.56-11.41a215.16,215.16,0,0,0-60-9.2c-12.68-.13-24.65-3.27-35.41-10.34-21.33-14-31.35-34-30.17-59.22,2.15-45.9,50.75-75.86,92.56-57.08,26.4,11.86,39.08,33.2,39.78,61.66A198.14,198.14,0,0,0,594.38,454.42Z"/>
  <path class="cls-1" d="M329.64,459.47C276.31,434.54,220.27,433.19,169,453L317.66,304.55C301.21,356.65,304.19,408.47,329.64,459.47Z"/>
  <path class="cls-1" d="M844.28,548.5,695.83,696.83a205.1,205.1,0,0,0,9-78.49,199.77,199.77,0,0,0-21.7-76.66C736.53,566.65,789.65,568.79,844.28,548.5Z"/>
  <path class="cls-1" d="M695.34,301.91c12,12.4,24,24.95,36.18,37.19q36.65,36.72,73.57,73.18c4.62,4.6,4.67,4.55-1.16,8.1-35.09,21.32-82.33,3.82-95.09-35.2a58.4,58.4,0,0,1-3.32-17.07c-.44-22.24-3.87-44-11.36-65Z"/>
  <path class="cls-1" d="M315.66,697.62c-9.93-10.29-19.73-20.7-29.83-30.83q-39.3-39.46-78.88-78.67c-2.63-2.62-2.52-3.72.59-5.7C246.85,557.48,299,580.61,306,627c2,13.32,1.22,26.94,4,40.22,1.8,8.64,3.05,17.38,6,25.74a28.65,28.65,0,0,1,.83,3.72Z"/>
  <path class="cls-2" d="M570.71,179.21c-43-14.59-85.59-14.36-128.78-1.24,8.17-8,16.38-15.92,24.51-23.93q18.82-18.56,37.55-37.2c1.46-1.45,2.19-3,4.5-.62,20.23,20.46,40.61,40.77,60.93,61.14A17.81,17.81,0,0,1,570.71,179.21Z"/>
  <path class="cls-1" d="M569.31,824.32Q559.16,834.54,549,844.75q-20.09,20.16-40.17,40.32c-1.51,1.53-2.37,2.32-4.3.37q-30.21-30.5-60.58-60.83a12.2,12.2,0,0,1-1.11-1.63C485.05,836.75,527,836.57,569.31,824.32Z"/>
</svg>
